<svg width="33" height="26" viewBox="0 0 33 26" fill="none" xmlns="http://www.w3.org/2000/svg"><path d="M27.5893 2.82663C25.5147 1.87431 23.3253 1.19522 21.0759 0.806363C21.0554 0.802551 21.0343 0.80528 21.0155 0.814161C20.9967 0.823042 20.9812 0.837624 20.9712 0.85583C20.6899 1.35623 20.3783 2.0089 20.1601 2.52183C17.7005 2.15356 15.2535 2.15356 12.8444 2.52183C12.6263 1.99743 12.3033 1.35623 12.0208 0.85583C12.0103 0.838038 11.9948 0.823814 11.9761 0.815014C11.9574 0.806213 11.9365 0.803245 11.9161 0.806497C9.66651 1.19445 7.47693 1.87349 5.40254 2.8265C5.38479 2.83408 5.36984 2.84698 5.35974 2.86343C1.21121 9.0613 0.074672 15.1068 0.632272 21.0773C0.633849 21.0919 0.638343 21.1061 0.645489 21.1189C0.652634 21.1318 0.662286 21.143 0.673872 21.1521C3.41094 23.1622 6.06227 24.3825 8.6644 25.1913C8.68464 25.1973 8.70623 25.197 8.7263 25.1905C8.74636 25.1839 8.76394 25.1713 8.77667 25.1545C9.39214 24.314 9.9408 23.4276 10.4113 22.4956C10.4178 22.4828 10.4215 22.4688 10.4222 22.4545C10.4228 22.4402 10.4205 22.426 10.4152 22.4126C10.41 22.3993 10.402 22.3873 10.3918 22.3773C10.3815 22.3673 10.3693 22.3596 10.3559 22.3546C9.48547 22.0245 8.65681 21.622 7.8596 21.1649C7.84507 21.1564 7.83286 21.1444 7.82405 21.13C7.81524 21.1156 7.81011 21.0993 7.80911 21.0825C7.80811 21.0656 7.81127 21.0488 7.81831 21.0335C7.82535 21.0182 7.83605 21.0048 7.84947 20.9946C8.0172 20.8689 8.18507 20.7382 8.3452 20.6061C8.35944 20.5944 8.37666 20.5868 8.39494 20.5844C8.41322 20.5819 8.43183 20.5846 8.44867 20.5921C13.6857 22.9832 19.3553 22.9832 24.5305 20.5921C24.5474 20.5841 24.5662 20.581 24.5847 20.5833C24.6032 20.5855 24.6207 20.593 24.6352 20.6048C24.7955 20.7368 24.9632 20.8689 25.1323 20.9946C25.1457 21.0047 25.1565 21.018 25.1636 21.0332C25.1708 21.0485 25.174 21.0652 25.1732 21.082C25.1723 21.0988 25.1673 21.1152 25.1586 21.1296C25.15 21.144 25.1379 21.1561 25.1235 21.1648C24.326 21.6306 23.4906 22.0281 22.6261 22.3533C22.6127 22.3584 22.6005 22.3663 22.5904 22.3765C22.5802 22.3867 22.5723 22.3989 22.5672 22.4123C22.5621 22.4257 22.5598 22.4401 22.5606 22.4544C22.5614 22.4688 22.5653 22.4828 22.5719 22.4956C23.0524 23.4262 23.6011 24.3126 24.2052 25.1532C24.2175 25.1705 24.235 25.1835 24.2552 25.1904C24.2753 25.1972 24.2971 25.1975 24.3175 25.1913C26.9321 24.3824 29.5835 23.1621 32.3205 21.1521C32.3323 21.1435 32.3421 21.1325 32.3493 21.1198C32.3565 21.1071 32.3609 21.093 32.3623 21.0785C33.0295 14.1758 31.2447 8.17996 27.6309 2.86463C27.6221 2.84736 27.6073 2.83384 27.5893 2.8265V2.82663ZM11.1933 17.4418C9.61667 17.4418 8.31747 15.9942 8.31747 14.2165C8.31747 12.4389 9.59147 10.9913 11.1935 10.9913C12.8079 10.9913 14.0944 12.4516 14.0692 14.2166C14.0692 15.9942 12.7952 17.4418 11.1933 17.4418ZM21.8264 17.4418C20.2497 17.4418 18.9505 15.9942 18.9505 14.2165C18.9505 12.4389 20.2244 10.9913 21.8264 10.9913C23.4408 10.9913 24.7273 12.4516 24.7021 14.2166C24.7021 15.9942 23.4408 17.4418 21.8264 17.4418Z" fill="white"></path></svg>
