<svg width="48" height="39" viewBox="0 0 48 39" fill="none" xmlns="http://www.w3.org/2000/svg"><path fill-rule="evenodd" clip-rule="evenodd" d="M0.666504 12.7461C0.666504 5.54481 6.98422 0 14.3998 0C18.2224 0 21.5861 1.79237 23.9998 4.11155C26.4136 1.79237 29.7772 0 33.5998 0C41.0155 0 47.3332 5.5448 47.3332 12.7461C47.3332 17.6791 45.2295 22.0172 42.315 25.6841C39.4055 29.3447 35.5997 32.4515 31.9558 34.9759C30.5639 35.9401 29.1559 36.8296 27.8672 37.4859C26.6572 38.1021 25.2658 38.6667 23.9998 38.6667C22.7339 38.6667 21.3425 38.1021 20.1325 37.4859C18.8438 36.8296 17.4357 35.9402 16.0439 34.9759C12.4 32.4515 8.59416 29.3447 5.68469 25.6841C2.77019 22.0172 0.666504 17.6791 0.666504 12.7461ZM14.3998 4C8.85517 4 4.6665 8.0776 4.6665 12.7461C4.6665 16.4888 6.25527 19.9733 8.81608 23.1952C11.3819 26.4235 14.8343 29.2718 18.3218 31.6879C19.6415 32.6021 20.8845 33.38 21.9477 33.9215C23.0896 34.503 23.7509 34.6667 23.9998 34.6667C24.2487 34.6667 24.9101 34.503 26.052 33.9215C27.1152 33.38 28.3582 32.6021 29.6779 31.6879C33.1654 29.2718 36.6177 26.4235 39.1836 23.1952C41.7444 19.9733 43.3332 16.4888 43.3332 12.7461C43.3332 8.0776 39.1445 4 33.5998 4C30.4154 4 27.442 5.90246 25.5853 8.31712C25.2068 8.80949 24.6209 9.09804 23.9998 9.09804C23.3787 9.09804 22.7929 8.80949 22.4143 8.31712C20.5577 5.90246 17.5842 4 14.3998 4Z" fill="white"></path></svg>
