 <svg width="64" height="64" viewBox="0 0 64 64" fill="none"
                                             xmlns="http://www.w3.org/2000/svg">
                                            <path
                                                d="M62.9207 3.1497C62.6287 2.27625 61.7528 1.4028 60.8769 1.11165C48.6139 -2.09099 36.059 1.69395 27.5917 11.593L24.3799 15.378L16.4966 13.6311C12.7009 12.1753 8.61327 13.9222 6.86142 17.416L0.437963 28.7709C-0.145988 29.6443 -0.145988 30.5178 0.437963 31.3912C0.729938 32.2647 1.60586 32.847 2.48179 33.1381L11.533 35.1762C10.6571 37.5054 10.3651 39.8346 9.78118 42.1638C9.78118 43.0372 10.0731 43.9107 10.6571 44.493L19.7083 53.5186C20.2923 54.1009 20.8762 54.3921 21.7522 54.3921H22.0441C24.6719 54.1009 27.0077 53.8098 29.3435 52.9363L31.0954 61.6708C31.3874 62.5443 31.9713 63.4177 32.8472 63.7089C33.1392 64 33.7232 64 34.0151 64C34.5991 64 34.8911 64 35.475 63.7089L46.8621 57.3036C50.0738 55.5567 51.8256 51.4806 50.9497 47.6956L48.9059 39.5434L52.4096 36.3408C62.0448 28.1886 66.1324 15.0868 62.9207 3.1497ZM18.2485 22.6567C16.4966 24.9859 14.7448 27.3151 13.5769 29.6443L7.44537 28.1886L11.825 20.3275C12.409 19.1629 13.5769 18.8718 15.0367 19.1629L20.0003 20.3275L18.2485 22.6567ZM43.6503 52.0629L35.767 56.4301L34.5991 50.6071C37.2269 49.4425 39.5627 47.6956 41.6065 45.9487L43.6503 43.9107L44.8182 48.8602C45.4022 50.316 44.5262 51.7717 43.6503 52.0629ZM45.6941 22.6567C43.3583 22.6567 41.3145 20.6187 41.3145 18.2895C41.3145 15.9603 43.3583 13.9222 45.6941 13.9222C48.03 13.9222 50.0738 15.9603 50.0738 18.2895C50.0738 20.6187 48.3219 22.6567 45.6941 22.6567Z"
                                                fill="white"></path>
                                        </svg>
