<svg width="52" height="50" viewBox="0 0 52 50" fill="none" xmlns="http://www.w3.org/2000/svg"><path d="M15.3335 13.3333C16.4381 13.3333 17.3335 14.2288 17.3335 15.3333V18.6667H20.6669C21.7714 18.6667 22.6669 19.5621 22.6669 20.6667C22.6669 21.7712 21.7714 22.6667 20.6669 22.6667H17.3335V26C17.3335 27.1046 16.4381 28 15.3335 28C14.229 28 13.3335 27.1046 13.3335 26V22.6667H10.0002C8.89563 22.6667 8.0002 21.7712 8.0002 20.6667C8.0002 19.5621 8.89563 18.6667 10.0002 18.6667H13.3335V15.3333C13.3335 14.2288 14.229 13.3333 15.3335 13.3333Z" fill="white"></path><path d="M39.3335 25.3333C39.3335 23.8606 38.1396 22.6667 36.6669 22.6667C35.1941 22.6667 34.0002 23.8606 34.0002 25.3333V26C34.0002 27.4728 35.1941 28.6667 36.6669 28.6667C38.1396 28.6667 39.3335 27.4728 39.3335 26V25.3333Z" fill="white"></path><path d="M36.6669 12.6667C38.1396 12.6667 39.3335 13.8606 39.3335 15.3333V16C39.3335 17.4728 38.1396 18.6667 36.6669 18.6667C35.1941 18.6667 34.0002 17.4728 34.0002 16V15.3333C34.0002 13.8606 35.1941 12.6667 36.6669 12.6667Z" fill="white"></path><path d="M44.6669 20.6667C44.6669 22.1394 43.473 23.3333 42.0002 23.3333H41.3335C39.8608 23.3333 38.6669 22.1394 38.6669 20.6667C38.6669 19.1939 39.8608 18 41.3335 18H42.0002C43.473 18 44.6669 19.1939 44.6669 20.6667Z" fill="white"></path><path d="M32.0002 23.3333C33.473 23.3333 34.6669 22.1394 34.6669 20.6667C34.6669 19.1939 33.473 18 32.0002 18H31.3335C29.8608 18 28.6669 19.1939 28.6669 20.6667C28.6669 22.1394 29.8608 23.3333 31.3335 23.3333H32.0002Z" fill="white"></path><path fill-rule="evenodd" clip-rule="evenodd" d="M28.0002 2C28.0002 0.895431 27.1048 0 26.0002 0C24.8956 0 24.0002 0.895431 24.0002 2V5.965C20.1626 6.01745 16.3265 6.22086 12.5009 6.57522L11.6167 6.65713C5.23879 7.24792 0.327639 12.5442 0.219097 18.9484L0.186852 20.851C0.0607075 28.2939 0.660657 35.7313 1.97819 43.0578C2.63141 46.6902 5.79231 49.3333 9.48299 49.3333H10.0725C13.3667 49.3333 16.3516 47.3919 17.6872 44.3806L20.5155 38.0038C22.6251 33.2473 29.3753 33.2473 31.4849 38.0038L34.3132 44.3806C35.6488 47.3919 38.6337 49.3333 41.928 49.3333H42.5174C46.2081 49.3333 49.369 46.6902 50.0222 43.0578C51.3398 35.7313 51.9397 28.2939 51.8136 20.851L51.7813 18.9484C51.6728 12.5442 46.7616 7.24792 40.3838 6.65713L39.4995 6.57522C35.6739 6.22085 31.8378 6.01745 28.0002 5.965V2ZM12.8699 10.5582C21.6047 9.74906 30.3957 9.74906 39.1305 10.5582L40.0148 10.6401C44.3611 11.0427 47.7079 14.6519 47.7819 19.0162L47.8141 20.9188C47.9359 28.1017 47.3569 35.2793 46.0854 42.3498C45.7748 44.0767 44.2721 45.3333 42.5174 45.3333H41.928C40.2155 45.3333 38.664 44.3242 37.9697 42.7588L35.1414 36.382C31.6254 28.4546 20.375 28.4545 16.859 36.382L14.0307 42.7588C13.3364 44.3242 11.7849 45.3333 10.0725 45.3333H9.48299C7.72836 45.3333 6.22559 44.0767 5.91503 42.3498C4.64353 35.2793 4.06454 28.1017 4.18628 20.9188L4.21852 19.0162C4.29249 14.6519 7.63929 11.0427 11.9856 10.6401L12.8699 10.5582Z" fill="white"></path></svg>
