<svg width="32" height="28" viewBox="0 0 32 28" fill="none" xmlns="http://www.w3.org/2000/svg"><path d="M31.9373 4.09312C30.7393 4.6206 29.4701 4.96878 28.1707 5.12646C29.5388 4.30412 30.5632 3.01452 31.0547 1.49579C29.7867 2.23579 28.3813 2.77446 26.8853 3.07446C25.8983 2.01903 24.5905 1.31902 23.1649 1.08313C21.7392 0.847233 20.2756 1.08866 19.0012 1.76991C17.7269 2.45117 16.7131 3.53412 16.1174 4.85062C15.5217 6.16712 15.3773 7.64348 15.7067 9.05046C10.2533 8.79312 5.42267 6.17312 2.18667 2.21579C1.59839 3.21554 1.29155 4.35583 1.29867 5.51579C1.29867 7.79579 2.45867 9.79979 4.216 10.9771C3.17448 10.944 2.15596 10.6624 1.24533 10.1558V10.2358C1.24474 11.751 1.76836 13.2197 2.72734 14.3928C3.68633 15.5659 5.02162 16.3711 6.50667 16.6718C5.5444 16.9296 4.53655 16.9684 3.55733 16.7851C3.97883 18.0891 4.79688 19.229 5.89735 20.0458C6.99782 20.8625 8.3258 21.3154 9.696 21.3411C7.37537 23.1624 4.50997 24.1509 1.56 24.1478C1.04 24.1478 0.521333 24.1171 0 24.0585C3.00761 25.9842 6.50468 27.0065 10.076 27.0038C22.1467 27.0038 28.74 17.0091 28.74 8.35712C28.74 8.07712 28.74 7.79712 28.72 7.51712C30.008 6.59027 31.119 5.43955 32 4.11979L31.9373 4.09312Z" fill="white"></path></svg>
