<svg width="60" height="60" viewBox="0 0 60 60" fill="none"
                                             xmlns="http://www.w3.org/2000/svg">
                                            <path
                                                d="M35.3334 22.0003H24.6667C23.9595 22.0003 23.2812 22.2813 22.7811 22.7814C22.281 23.2815 22.0001 23.9597 22.0001 24.667V56.667C22.0001 57.3742 22.281 58.0525 22.7811 58.5526C23.2812 59.0527 23.9595 59.3337 24.6667 59.3337H35.3334C36.0407 59.3337 36.7189 59.0527 37.219 58.5526C37.7191 58.0525 38.0001 57.3742 38.0001 56.667V24.667C38.0001 23.9597 37.7191 23.2815 37.219 22.7814C36.7189 22.2813 36.0407 22.0003 35.3334 22.0003ZM32.6667 54.0003H27.3334V27.3337H32.6667V54.0003ZM56.6667 0.666992H46.0001C45.2928 0.666992 44.6146 0.947944 44.1145 1.44804C43.6144 1.94814 43.3334 2.62641 43.3334 3.33366V56.667C43.3334 57.3742 43.6144 58.0525 44.1145 58.5526C44.6146 59.0527 45.2928 59.3337 46.0001 59.3337H56.6667C57.374 59.3337 58.0523 59.0527 58.5524 58.5526C59.0525 58.0525 59.3334 57.3742 59.3334 56.667V3.33366C59.3334 2.62641 59.0525 1.94814 58.5524 1.44804C58.0523 0.947944 57.374 0.666992 56.6667 0.666992ZM54.0001 54.0003H48.6667V6.00033H54.0001V54.0003ZM14.0001 38.0003H3.33341C2.62617 38.0003 1.94789 38.2813 1.4478 38.7814C0.947699 39.2815 0.666748 39.9597 0.666748 40.667V56.667C0.666748 57.3742 0.947699 58.0525 1.4478 58.5526C1.94789 59.0527 2.62617 59.3337 3.33341 59.3337H14.0001C14.7073 59.3337 15.3856 59.0527 15.8857 58.5526C16.3858 58.0525 16.6667 57.3742 16.6667 56.667V40.667C16.6667 39.9597 16.3858 39.2815 15.8857 38.7814C15.3856 38.2813 14.7073 38.0003 14.0001 38.0003ZM11.3334 54.0003H6.00008V43.3337H11.3334V54.0003Z"
                                                fill="white"></path>
                                        </svg>
