<svg width="60" height="60" viewBox="0 0 60 60" fill="none"
                                             xmlns="http://www.w3.org/2000/svg">
                                            <path
                                                d="M27.3334 22.0003H38.0001C38.7073 22.0003 39.3856 21.7194 39.8857 21.2193C40.3858 20.7192 40.6668 20.0409 40.6668 19.3337C40.6668 18.6264 40.3858 17.9481 39.8857 17.448C39.3856 16.9479 38.7073 16.667 38.0001 16.667H32.6668V14.0003C32.6668 13.2931 32.3858 12.6148 31.8857 12.1147C31.3856 11.6146 30.7073 11.3337 30.0001 11.3337C29.2929 11.3337 28.6146 11.6146 28.1145 12.1147C27.6144 12.6148 27.3334 13.2931 27.3334 14.0003V16.667C25.2117 16.667 23.1769 17.5098 21.6766 19.0101C20.1763 20.5104 19.3334 22.5453 19.3334 24.667C19.3334 26.7887 20.1763 28.8236 21.6766 30.3238C23.1769 31.8241 25.2117 32.667 27.3334 32.667H32.6668C33.374 32.667 34.0523 32.9479 34.5524 33.448C35.0525 33.9481 35.3334 34.6264 35.3334 35.3337C35.3334 36.0409 35.0525 36.7192 34.5524 37.2193C34.0523 37.7194 33.374 38.0003 32.6668 38.0003H22.0001C21.2929 38.0003 20.6146 38.2813 20.1145 38.7814C19.6144 39.2815 19.3334 39.9597 19.3334 40.667C19.3334 41.3742 19.6144 42.0525 20.1145 42.5526C20.6146 43.0527 21.2929 43.3337 22.0001 43.3337H27.3334V46.0003C27.3334 46.7076 27.6144 47.3858 28.1145 47.8859C28.6146 48.386 29.2929 48.667 30.0001 48.667C30.7073 48.667 31.3856 48.386 31.8857 47.8859C32.3858 47.3858 32.6668 46.7076 32.6668 46.0003V43.3337C34.7885 43.3337 36.8233 42.4908 38.3236 40.9905C39.8239 39.4902 40.6668 37.4554 40.6668 35.3337C40.6668 33.2119 39.8239 31.1771 38.3236 29.6768C36.8233 28.1765 34.7885 27.3337 32.6668 27.3337H27.3334C26.6262 27.3337 25.9479 27.0527 25.4478 26.5526C24.9477 26.0525 24.6668 25.3742 24.6668 24.667C24.6668 23.9597 24.9477 23.2815 25.4478 22.7814C25.9479 22.2813 26.6262 22.0003 27.3334 22.0003ZM30.0001 0.666992C24.1985 0.666992 18.5272 2.38736 13.7034 5.61055C8.87953 8.83374 5.1198 13.415 2.89963 18.7749C0.679458 24.1349 0.0985599 30.0329 1.23039 35.723C2.36223 41.4131 5.15596 46.6398 9.2583 50.7421C13.3606 54.8445 18.5873 57.6382 24.2774 58.77C29.9676 59.9019 35.8655 59.321 41.2255 57.1008C46.5854 54.8806 51.1667 51.1209 54.3899 46.2971C57.6131 41.4732 59.3334 35.8019 59.3334 30.0003C59.3334 22.2206 56.243 14.7596 50.7419 9.25853C45.2408 3.75746 37.7798 0.666992 30.0001 0.666992ZM30.0001 54.0003C25.2533 54.0003 20.6132 52.5927 16.6664 49.9556C12.7196 47.3184 9.64349 43.5702 7.82699 39.1847C6.01048 34.7993 5.5352 29.9737 6.46125 25.3182C7.38729 20.6626 9.67307 16.3862 13.0295 13.0298C16.386 9.6733 20.6624 7.38752 25.3179 6.46148C29.9735 5.53543 34.7991 6.01071 39.1845 7.82722C43.5699 9.64372 47.3182 12.7199 49.9554 16.6666C52.5925 20.6134 54.0001 25.2536 54.0001 30.0003C54.0001 36.3655 51.4715 42.47 46.9707 46.9709C42.4698 51.4718 36.3653 54.0003 30.0001 54.0003Z"
                                                fill="white"></path>
                                        </svg>
