<svg width="22" height="18.86" viewBox="0 0 28 24" fill="none" xmlns="http://www.w3.org/2000/svg"><path d="M23.3332 0H4.6665C3.60564 0 2.58822 0.421427 1.83808 1.17157C1.08793 1.92172 0.666504 2.93913 0.666504 4V14.6667C0.666504 15.7275 1.08793 16.7449 1.83808 17.4951C2.58822 18.2452 3.60564 18.6667 4.6665 18.6667H12.6665V21.3333H7.33317C6.97955 21.3333 6.64041 21.4738 6.39036 21.7239C6.14031 21.9739 5.99984 22.313 5.99984 22.6667C5.99984 23.0203 6.14031 23.3594 6.39036 23.6095C6.64041 23.8595 6.97955 24 7.33317 24H20.6665C21.0201 24 21.3593 23.8595 21.6093 23.6095C21.8594 23.3594 21.9998 23.0203 21.9998 22.6667C21.9998 22.313 21.8594 21.9739 21.6093 21.7239C21.3593 21.4738 21.0201 21.3333 20.6665 21.3333H15.3332V18.6667H23.3332C24.394 18.6667 25.4115 18.2452 26.1616 17.4951C26.9117 16.7449 27.3332 15.7275 27.3332 14.6667V4C27.3332 2.93913 26.9117 1.92172 26.1616 1.17157C25.4115 0.421427 24.394 0 23.3332 0ZM24.6665 14.6667C24.6665 15.0203 24.526 15.3594 24.276 15.6095C24.0259 15.8595 23.6868 16 23.3332 16H4.6665C4.31288 16 3.97374 15.8595 3.7237 15.6095C3.47365 15.3594 3.33317 15.0203 3.33317 14.6667V4C3.33317 3.64638 3.47365 3.30724 3.7237 3.05719C3.97374 2.80714 4.31288 2.66667 4.6665 2.66667H23.3332C23.6868 2.66667 24.0259 2.80714 24.276 3.05719C24.526 3.30724 24.6665 3.64638 24.6665 4V14.6667Z" fill="white"></path></svg>
